<?xml version="1.0" encoding="UTF-8"?>
<svg xmlns="http://www.w3.org/2000/svg" xmlns:xlink="http://www.w3.org/1999/xlink" width="2000px" height="2000px" viewBox="0 0 2000 2000" version="1.1">
<g id="surface1">
<rect x="0" y="0" width="2000" height="2000" style="fill:rgb(100%,100%,100%);fill-opacity:1;stroke:none;"/>
<path style=" stroke:none;fill-rule:evenodd;fill:rgb(15.686275%,32.54902%,61.176471%);fill-opacity:1;" d="M 418.789062 881.144531 L 333.851562 881.144531 L 333.851562 1078.785156 L 418.789062 993.847656 Z M 221.179688 778.996094 L 221.179688 864.035156 L 418.789062 864.035156 L 333.851562 778.996094 Z M 316.710938 1078.785156 L 316.710938 993.847656 L 119.0625 993.847656 L 204.0625 1078.785156 Z M 119.125 976.714844 L 204.0625 976.714844 L 204.0625 778.984375 L 119.125 863.953125 Z M 705.90625 1047.230469 C 705.90625 1058.476562 699.683594 1075.058594 669.945312 1075.058594 L 634.078125 1075.058594 L 634.078125 1022.089844 L 669.945312 1022.089844 C 699.683594 1022.078125 705.90625 1036.179688 705.90625 1047.230469 Z M 666.449219 993.742188 L 583.898438 993.742188 L 583.898438 1163.957031 L 634.066406 1163.957031 L 634.066406 1103.65625 L 676.992188 1103.65625 C 726.472656 1103.65625 756.023438 1079.5625 756.023438 1047.945312 C 756.035156 1012.8125 729.96875 993.742188 666.449219 993.742188 Z M 1821.257812 1029.476562 C 1802.332031 1029.476562 1784.027344 1036.367188 1773.921875 1045.890625 L 1773.277344 1045.890625 L 1773.277344 1032.238281 L 1731.859375 1032.238281 L 1731.859375 1163.957031 L 1773.933594 1163.957031 L 1773.933594 1073.742188 C 1783.621094 1062.367188 1797.152344 1058.300781 1808.316406 1058.300781 C 1838.367188 1058.300781 1838.851562 1077.589844 1838.851562 1102.761719 L 1838.851562 1163.957031 L 1880.949219 1163.957031 L 1880.949219 1088.992188 C 1880.9375 1059.890625 1873.519531 1029.476562 1821.257812 1029.476562 Z M 910.363281 1114.851562 L 866.929688 993.742188 L 786.933594 993.742188 L 786.933594 1163.957031 L 835.335938 1163.957031 L 835.335938 1029.207031 L 838.179688 1029.207031 L 887.683594 1163.957031 L 933.042969 1163.957031 L 982.484375 1029.207031 L 985.402344 1029.207031 L 985.402344 1163.957031 L 1033.90625 1163.957031 L 1033.90625 993.742188 L 954.210938 993.742188 Z M 1188.394531 1097.988281 C 1188.394531 1123.667969 1175.101562 1141.214844 1147.378906 1141.214844 C 1119.757812 1141.214844 1106.28125 1123.667969 1106.28125 1097.988281 C 1106.28125 1072.214844 1119.757812 1054.535156 1147.378906 1054.535156 C 1175.101562 1054.546875 1188.394531 1072.214844 1188.394531 1097.988281 Z M 1233.207031 1097.988281 C 1233.207031 1051.089844 1195.613281 1027.765625 1147.386719 1027.765625 C 1099.183594 1027.765625 1061.550781 1051.089844 1061.550781 1097.988281 C 1061.550781 1144.640625 1099.183594 1168.089844 1147.386719 1168.089844 C 1195.605469 1168.089844 1233.207031 1144.640625 1233.207031 1097.988281 Z M 1487.144531 1032.207031 L 1487.144531 1044.832031 L 1486.511719 1044.832031 C 1477.410156 1035.816406 1463.164062 1029.476562 1438.160156 1029.476562 C 1389.300781 1029.476562 1368.039062 1065.046875 1368.039062 1097.285156 C 1368.039062 1135.21875 1389.902344 1163.773438 1435.222656 1165.316406 C 1458.363281 1166.3125 1476.238281 1156.199219 1484.613281 1148.21875 L 1485.226562 1148.21875 L 1485.226562 1153.726562 C 1485.226562 1174.035156 1477.277344 1193.789062 1436.042969 1193.789062 C 1419.566406 1193.789062 1401.109375 1191.050781 1383.613281 1182.605469 L 1383.613281 1213.140625 C 1400.816406 1218.898438 1420.011719 1221.027344 1442.28125 1221.027344 C 1510.757812 1221.027344 1526.863281 1183.859375 1526.863281 1148.394531 L 1526.863281 1032.207031 Z M 1448.015625 1137.46875 C 1423.613281 1137.46875 1411.867188 1117.929688 1411.867188 1097.855469 C 1411.867188 1077.789062 1421.414062 1056.496094 1449.523438 1056.496094 C 1474.289062 1056.496094 1485.453125 1074.695312 1485.453125 1097.105469 C 1485.441406 1116.1875 1475.429688 1137.46875 1448.015625 1137.46875 Z M 1698.148438 1081.109375 C 1698.148438 1047.179688 1677.09375 1029.46875 1629.167969 1029.46875 C 1613.542969 1029.46875 1590.945312 1031.210938 1571.269531 1036.523438 L 1571.269531 1062.824219 C 1586.617188 1057.273438 1604.972656 1054.535156 1619.914062 1054.535156 C 1641.132812 1054.535156 1657.421875 1057.234375 1657.421875 1083.679688 L 1636.753906 1083.679688 C 1619.167969 1083.679688 1595.011719 1085.382812 1581.835938 1089.761719 C 1566.570312 1094.84375 1552.046875 1105.707031 1552.046875 1124.964844 C 1552.046875 1155.90625 1579.117188 1167.0625 1609.558594 1167.0625 C 1632.011719 1167.0625 1647.804688 1162.058594 1659.289062 1150.75 L 1659.902344 1150.75 L 1659.902344 1163.957031 L 1698.167969 1163.957031 L 1698.167969 1081.109375 Z M 1657.410156 1128.515625 C 1643.996094 1138.703125 1630.363281 1141.652344 1618.285156 1142.148438 C 1603.894531 1142.59375 1593.902344 1138.039062 1593.902344 1124.332031 C 1593.902344 1108.199219 1617.246094 1105.511719 1642.90625 1105.511719 L 1657.410156 1105.511719 Z M 491.835938 993.742188 L 491.835938 1097.222656 C 491.835938 1120.585938 481.125 1135 457.21875 1135.34375 C 449.523438 1135.464844 433.210938 1135 418.964844 1131.898438 L 418.964844 1164.21875 C 433.355469 1166.429688 450.851562 1167.03125 465.117188 1167.03125 C 512.78125 1167.03125 542.03125 1141.835938 542.03125 1102.886719 L 542.03125 993.734375 L 491.835938 993.734375 Z M 1344.921875 1029.476562 C 1327.023438 1029.476562 1310.289062 1034.09375 1299.933594 1052.253906 L 1299.289062 1052.253906 L 1299.289062 1032.226562 L 1259.25 1032.226562 L 1259.25 1163.949219 L 1302.816406 1163.949219 L 1302.816406 1099.566406 C 1302.816406 1085.789062 1305.089844 1077.457031 1307.984375 1072.691406 C 1312.769531 1064.722656 1318.660156 1060.316406 1330.117188 1058.632812 C 1335.875 1057.84375 1344.300781 1058.550781 1350.226562 1061.933594 L 1369.742188 1034.085938 C 1361.636719 1031.035156 1354.832031 1029.476562 1344.921875 1029.476562 Z M 1344.921875 1029.476562 "/>
</g>
</svg>
