<?xml version="1.0" encoding="UTF-8"?>
<svg xmlns="http://www.w3.org/2000/svg" xmlns:xlink="http://www.w3.org/1999/xlink" width="250px" height="350px" viewBox="0 0 250 350" version="1.1">
<g id="surface1">
<rect x="0" y="0" width="250" height="350" style="fill:rgb(100%,100%,100%);fill-opacity:1;stroke:none;"/>
<path style=" stroke:none;fill-rule:evenodd;fill:rgb(15.686275%,32.54902%,61.176471%);fill-opacity:1;" d="M 52.347656 154.199219 L 41.730469 154.199219 L 41.730469 188.789062 L 52.347656 173.921875 Z M 27.648438 136.324219 L 27.648438 151.207031 L 52.347656 151.207031 L 41.730469 136.324219 Z M 39.589844 188.789062 L 39.589844 173.921875 L 14.882812 173.921875 L 25.507812 188.789062 Z M 14.890625 170.925781 L 25.507812 170.925781 L 25.507812 136.324219 L 14.890625 151.191406 Z M 88.238281 183.265625 C 88.238281 185.234375 87.460938 188.136719 83.742188 188.136719 L 79.257812 188.136719 L 79.257812 178.867188 L 83.742188 178.867188 C 87.460938 178.863281 88.238281 181.332031 88.238281 183.265625 Z M 83.304688 173.90625 L 72.988281 173.90625 L 72.988281 203.691406 L 79.257812 203.691406 L 79.257812 193.140625 L 84.625 193.140625 C 90.808594 193.140625 94.503906 188.921875 94.503906 183.390625 C 94.503906 177.242188 91.246094 173.90625 83.304688 173.90625 Z M 227.65625 180.160156 C 225.292969 180.160156 223.003906 181.363281 221.738281 183.03125 L 221.660156 183.03125 L 221.660156 180.640625 L 216.480469 180.640625 L 216.480469 203.691406 L 221.742188 203.691406 L 221.742188 187.90625 C 222.953125 185.914062 224.644531 185.203125 226.039062 185.203125 C 229.796875 185.203125 229.855469 188.578125 229.855469 192.984375 L 229.855469 203.691406 L 235.117188 203.691406 L 235.117188 190.574219 C 235.117188 185.480469 234.191406 180.160156 227.65625 180.160156 Z M 113.796875 195.097656 L 108.367188 173.90625 L 98.367188 173.90625 L 98.367188 203.691406 L 104.417969 203.691406 L 104.417969 180.113281 L 104.773438 180.113281 L 110.960938 203.691406 L 116.628906 203.691406 L 122.8125 180.113281 L 123.175781 180.113281 L 123.175781 203.691406 L 129.238281 203.691406 L 129.238281 173.90625 L 119.277344 173.90625 Z M 148.550781 192.148438 C 148.550781 196.640625 146.886719 199.710938 143.421875 199.710938 C 139.96875 199.710938 138.285156 196.640625 138.285156 192.148438 C 138.285156 187.636719 139.96875 184.542969 143.421875 184.542969 C 146.886719 184.546875 148.550781 187.636719 148.550781 192.148438 Z M 154.152344 192.148438 C 154.152344 183.941406 149.453125 179.859375 143.421875 179.859375 C 137.398438 179.859375 132.695312 183.941406 132.695312 192.148438 C 132.695312 200.3125 137.398438 204.414062 143.421875 204.414062 C 149.449219 204.414062 154.152344 200.3125 154.152344 192.148438 Z M 185.894531 180.636719 L 185.894531 182.847656 L 185.8125 182.847656 C 184.675781 181.269531 182.894531 180.160156 179.769531 180.160156 C 173.664062 180.160156 171.003906 186.382812 171.003906 192.023438 C 171.003906 198.664062 173.738281 203.660156 179.402344 203.929688 C 182.296875 204.105469 184.53125 202.335938 185.578125 200.9375 L 185.652344 200.9375 L 185.652344 201.902344 C 185.652344 205.457031 184.660156 208.914062 179.503906 208.914062 C 177.445312 208.914062 175.136719 208.433594 172.953125 206.957031 L 172.953125 212.300781 C 175.101562 213.308594 177.5 213.679688 180.285156 213.679688 C 188.84375 213.679688 190.859375 207.175781 190.859375 200.96875 L 190.859375 180.636719 Z M 181.003906 199.058594 C 177.953125 199.058594 176.484375 195.636719 176.484375 192.125 C 176.484375 188.613281 177.675781 184.886719 181.191406 184.886719 C 184.285156 184.886719 185.679688 188.070312 185.679688 191.992188 C 185.679688 195.332031 184.429688 199.058594 181.003906 199.058594 Z M 212.269531 189.195312 C 212.269531 183.257812 209.636719 180.15625 203.644531 180.15625 C 201.691406 180.15625 198.867188 180.460938 196.410156 181.390625 L 196.410156 185.996094 C 198.328125 185.023438 200.621094 184.542969 202.488281 184.542969 C 205.140625 184.542969 207.175781 185.015625 207.175781 189.644531 L 204.59375 189.644531 C 202.394531 189.644531 199.375 189.941406 197.730469 190.707031 C 195.820312 191.597656 194.003906 193.5 194.003906 196.867188 C 194.003906 202.285156 197.390625 204.234375 201.195312 204.234375 C 204 204.234375 205.976562 203.359375 207.410156 201.382812 L 207.488281 201.382812 L 207.488281 203.691406 L 212.269531 203.691406 Z M 207.175781 197.488281 C 205.5 199.273438 203.796875 199.789062 202.285156 199.875 C 200.488281 199.953125 199.238281 199.15625 199.238281 196.757812 C 199.238281 193.933594 202.15625 193.464844 205.363281 193.464844 L 207.175781 193.464844 Z M 61.480469 173.90625 L 61.480469 192.015625 C 61.480469 196.101562 60.140625 198.625 57.152344 198.683594 C 56.191406 198.707031 54.152344 198.625 52.371094 198.082031 L 52.371094 203.738281 C 54.167969 204.125 56.355469 204.230469 58.140625 204.230469 C 64.097656 204.230469 67.753906 199.820312 67.753906 193.003906 L 67.753906 173.902344 L 61.480469 173.902344 Z M 168.117188 180.160156 C 165.878906 180.160156 163.785156 180.964844 162.492188 184.144531 L 162.410156 184.144531 L 162.410156 180.640625 L 157.40625 180.640625 L 157.40625 203.691406 L 162.851562 203.691406 L 162.851562 192.425781 C 162.851562 190.011719 163.136719 188.554688 163.5 187.722656 C 164.097656 186.328125 164.832031 185.554688 166.265625 185.261719 C 166.984375 185.121094 168.039062 185.246094 168.777344 185.839844 L 171.21875 180.964844 C 170.203125 180.429688 169.355469 180.160156 168.117188 180.160156 Z M 168.117188 180.160156 "/>
</g>
</svg>
