<?xml version="1.0" encoding="UTF-8"?>
<svg xmlns="http://www.w3.org/2000/svg" xmlns:xlink="http://www.w3.org/1999/xlink" width="1500px" height="1500px" viewBox="0 0 1500 1500" version="1.1">
<g id="surface1">
<rect x="0" y="0" width="1500" height="1500" style="fill:rgb(100%,100%,100%);fill-opacity:1;stroke:none;"/>
<path style=" stroke:none;fill-rule:evenodd;fill:rgb(15.686275%,32.54902%,61.176471%);fill-opacity:1;" d="M 314.089844 660.859375 L 250.386719 660.859375 L 250.386719 809.089844 L 314.089844 745.386719 Z M 165.886719 584.246094 L 165.886719 648.027344 L 314.089844 648.027344 L 250.386719 584.246094 Z M 237.535156 809.089844 L 237.535156 745.386719 L 89.296875 745.386719 L 153.046875 809.089844 Z M 89.34375 732.535156 L 153.046875 732.535156 L 153.046875 584.238281 L 89.34375 647.964844 Z M 529.429688 785.421875 C 529.429688 793.855469 524.761719 806.292969 502.457031 806.292969 L 475.558594 806.292969 L 475.558594 766.566406 L 502.457031 766.566406 C 524.761719 766.558594 529.429688 777.136719 529.429688 785.421875 Z M 499.835938 745.308594 L 437.925781 745.308594 L 437.925781 872.96875 L 475.550781 872.96875 L 475.550781 827.742188 L 507.746094 827.742188 C 544.855469 827.742188 567.019531 809.671875 567.019531 785.957031 C 567.027344 759.609375 547.476562 745.308594 499.835938 745.308594 Z M 1365.941406 772.105469 C 1351.75 772.105469 1338.019531 777.277344 1330.441406 784.417969 L 1329.957031 784.417969 L 1329.957031 774.179688 L 1298.894531 774.179688 L 1298.894531 872.96875 L 1330.449219 872.96875 L 1330.449219 805.308594 C 1337.714844 796.777344 1347.863281 793.726562 1356.238281 793.726562 C 1378.777344 793.726562 1379.136719 808.191406 1379.136719 827.070312 L 1379.136719 872.96875 L 1410.710938 872.96875 L 1410.710938 816.746094 C 1410.703125 794.917969 1405.140625 772.105469 1365.941406 772.105469 Z M 682.773438 836.136719 L 650.199219 745.308594 L 590.199219 745.308594 L 590.199219 872.96875 L 626.503906 872.96875 L 626.503906 771.90625 L 628.636719 771.90625 L 665.761719 872.96875 L 699.78125 872.96875 L 736.863281 771.90625 L 739.050781 771.90625 L 739.050781 872.96875 L 775.429688 872.96875 L 775.429688 745.308594 L 715.660156 745.308594 Z M 891.296875 823.492188 C 891.296875 842.75 881.324219 855.910156 860.535156 855.910156 C 839.816406 855.910156 829.710938 842.75 829.710938 823.492188 C 829.710938 804.160156 839.816406 790.902344 860.535156 790.902344 C 881.324219 790.910156 891.296875 804.160156 891.296875 823.492188 Z M 924.90625 823.492188 C 924.90625 788.316406 896.710938 770.824219 860.539062 770.824219 C 824.386719 770.824219 796.164062 788.316406 796.164062 823.492188 C 796.164062 858.480469 824.386719 876.066406 860.539062 876.066406 C 896.703125 876.066406 924.90625 858.480469 924.90625 823.492188 Z M 1115.359375 774.15625 L 1115.359375 783.625 L 1114.882812 783.625 C 1108.058594 776.863281 1097.371094 772.105469 1078.621094 772.105469 C 1041.976562 772.105469 1026.027344 798.785156 1026.027344 822.964844 C 1026.027344 851.414062 1042.425781 872.832031 1076.417969 873.988281 C 1093.773438 874.734375 1107.179688 867.148438 1113.460938 861.164062 L 1113.917969 861.164062 L 1113.917969 865.292969 C 1113.917969 880.527344 1107.957031 895.339844 1077.03125 895.339844 C 1064.675781 895.339844 1050.832031 893.289062 1037.710938 886.953125 L 1037.710938 909.855469 C 1050.613281 914.175781 1065.007812 915.769531 1081.710938 915.769531 C 1133.066406 915.769531 1145.148438 887.894531 1145.148438 861.296875 L 1145.148438 774.15625 Z M 1086.011719 853.101562 C 1067.710938 853.101562 1058.902344 838.449219 1058.902344 823.390625 C 1058.902344 808.339844 1066.058594 792.371094 1087.144531 792.371094 C 1105.714844 792.371094 1114.089844 806.019531 1114.089844 822.828125 C 1114.082031 837.140625 1106.574219 853.101562 1086.011719 853.101562 Z M 1273.613281 810.832031 C 1273.613281 785.386719 1257.820312 772.101562 1221.875 772.101562 C 1210.15625 772.101562 1193.207031 773.410156 1178.453125 777.394531 L 1178.453125 797.117188 C 1189.964844 792.957031 1203.730469 790.902344 1214.933594 790.902344 C 1230.847656 790.902344 1243.066406 792.925781 1243.066406 812.761719 L 1227.566406 812.761719 C 1214.375 812.761719 1196.257812 814.035156 1186.378906 817.320312 C 1174.925781 821.132812 1164.035156 829.28125 1164.035156 843.722656 C 1164.035156 866.929688 1184.339844 875.296875 1207.167969 875.296875 C 1224.007812 875.296875 1235.855469 871.542969 1244.464844 863.0625 L 1244.925781 863.0625 L 1244.925781 872.96875 L 1273.625 872.96875 L 1273.625 810.832031 Z M 1243.058594 846.386719 C 1232.996094 854.027344 1222.773438 856.238281 1213.714844 856.613281 C 1202.921875 856.945312 1195.425781 853.527344 1195.425781 843.25 C 1195.425781 831.148438 1212.933594 829.132812 1232.179688 829.132812 L 1243.058594 829.132812 Z M 368.878906 745.308594 L 368.878906 822.917969 C 368.878906 840.441406 360.84375 851.25 342.914062 851.507812 C 337.144531 851.597656 324.910156 851.25 314.222656 848.925781 L 314.222656 873.164062 C 325.015625 874.824219 338.136719 875.273438 348.839844 875.273438 C 384.585938 875.273438 406.523438 856.378906 406.523438 827.164062 L 406.523438 745.300781 L 368.878906 745.300781 Z M 1008.691406 772.105469 C 995.269531 772.105469 982.714844 775.570312 974.949219 789.191406 L 974.464844 789.191406 L 974.464844 774.167969 L 944.4375 774.167969 L 944.4375 872.960938 L 977.113281 872.960938 L 977.113281 824.675781 C 977.113281 814.339844 978.816406 808.09375 980.988281 804.519531 C 984.578125 798.542969 988.996094 795.238281 997.589844 793.972656 C 1001.90625 793.382812 1008.226562 793.914062 1012.667969 796.449219 L 1027.308594 775.566406 C 1021.226562 773.277344 1016.125 772.105469 1008.691406 772.105469 Z M 1008.691406 772.105469 "/>
</g>
</svg>
